# xmcd
#
# Track frame offsets:
#  150
#  17262
#  29922
#  52171
#  66070
#  81522
#  101354
#  115836
#  131568
#  143730
#  157112
#  173296
#  191075
#  207757
#  222322
#  239131
#  256145
#
# Disc length: 3642 seconds
#
# Revision: 0
# Processed by: cddbd v1.4b42PL1 Copyright (c) Steve Scherf et al.
# Submitted via: AltoMP3_Maker 3.0
#
DISCID=f50e3811
DTITLE=Vaia Con Dios and Dani Klain - Vaia Con Dios and Dani Klain New And Best '99
DYEAR=1900
DGENRE=
TTITLE0=Dios Be Lo Devolvera
TTITLE1=The Heart Hunts Alone
TTITLE2=Dirty Gold
TTITLE3=Don't Cry For Louie
TTITLE4=Just A Friend Of Mine
TTITLE5=Puerto Rico
TTITLE6=Grand Tralala
TTITLE7=The Voises Warned Me
TTITLE8=Something Got A Hold On Me
TTITLE9=Nah Neh Nah
TTITLE10=I Don't Want To Know
TTITLE11=What's A Woman
TTITLE12=Time Flies
TTITLE13=Farewell Song
TTITLE14=Heading For A Fall
TTITLE15=Stay With Me
TTITLE16=Evening Of Love
EXTD=
EXTT0=
EXTT1=
EXTT2=
EXTT3=
EXTT4=
EXTT5=
EXTT6=
EXTT7=
EXTT8=
EXTT9=
EXTT10=
EXTT11=
EXTT12=
EXTT13=
EXTT14=
EXTT15=
EXTT16=
PLAYORDER=
